<svg width="659" height="300" viewBox="0 0 659 300" fill="none" xmlns="http://www.w3.org/2000/svg">
<g clip-path="url(#clip0_1_114)">
<mask id="mask0_1_114" style="mask-type:luminance" maskUnits="userSpaceOnUse" x="0" y="82" width="659" height="218">
<path d="M0 82H658.145V299.601H0V82Z" fill="white"/>
</mask>
<g mask="url(#mask0_1_114)">
<path d="M492.37 112.334C484.153 114.942 476.143 118.225 468.389 122.041C459.161 126.583 450.295 131.867 441.854 137.603C431.997 144.301 422.718 151.613 414.143 159.109C403.043 168.81 393.117 178.801 384.601 188.118C379.253 193.969 374.458 199.554 370.285 204.631C357.982 219.601 351.05 230.166 351.05 230.166L351.03 233.278L350.951 244.787L350.814 265.083C350.814 265.083 357.462 251.965 369.677 233.278C369.881 232.966 370.078 232.662 370.285 232.346C374.443 226.018 379.231 219.077 384.601 211.806C393.051 200.361 402.947 188.102 414.143 176.13C423.207 166.437 433.121 156.934 443.801 148.209C452.257 141.298 461.201 134.889 470.577 129.245C492.451 116.081 516.71 107.143 542.846 106.163C525.422 104.729 508.493 107.217 492.37 112.334Z" fill="white"/>
<path d="M648.45 145.429C647.984 145.615 647.288 145.708 646.357 145.708H644.376V141.184H646.25C647.468 141.184 648.35 141.341 648.901 141.648C649.458 141.96 649.738 142.569 649.738 143.479C649.737 144.437 649.306 145.088 648.45 145.429ZM651.72 151.361C651.697 151.031 651.686 150.724 651.686 150.435V149.517C651.686 148.888 651.461 148.241 651.006 147.583C650.552 146.921 649.833 146.512 648.853 146.359C649.628 146.233 650.233 146.031 650.664 145.755C651.481 145.229 651.889 144.405 651.889 143.291C651.889 141.724 651.244 140.669 649.953 140.132C649.229 139.833 648.094 139.681 646.542 139.681H642.178V152.169H644.376V147.241H646.112C647.276 147.241 648.094 147.377 648.56 147.645C649.344 148.109 649.738 149.065 649.738 150.509V151.503L649.781 151.905C649.79 151.955 649.804 152.003 649.813 152.044C649.825 152.085 649.833 152.127 649.844 152.169H651.906L651.825 152.012C651.778 151.908 651.74 151.692 651.72 151.361Z" fill="white"/>
<path d="M653.685 152.927C651.785 154.848 649.478 155.807 646.761 155.807C644.046 155.807 641.738 154.848 639.838 152.927C637.95 151.008 637.004 148.681 637.004 145.955C637.004 143.252 637.952 140.943 639.852 139.031C641.764 137.112 644.068 136.151 646.761 136.151C649.469 136.151 651.778 137.112 653.685 139.031C655.586 140.943 656.536 143.252 656.536 145.955C656.536 148.681 655.586 151.008 653.685 152.927ZM654.818 137.932C652.596 135.721 649.912 134.617 646.761 134.617C643.633 134.617 640.965 135.721 638.753 137.932C636.533 140.153 635.424 142.825 635.424 145.955C635.424 149.117 636.521 151.807 638.722 154.025C640.932 156.257 643.61 157.372 646.761 157.372C649.912 157.372 652.596 156.257 654.818 154.025C657.037 151.796 658.146 149.104 658.146 145.955C658.146 142.817 657.037 140.143 654.818 137.932Z" fill="white"/>
<path d="M66.2213 234.864C70.98 234.864 75.5387 234.072 79.9027 232.285V204.333C76.136 205.52 72.3667 206.512 68.6013 206.512C42.8253 206.512 31.524 179.151 31.524 156.945C31.524 133.945 42.8253 110.351 68.8 110.351C72.5653 110.351 76.136 110.947 79.9027 111.937V84.7735C74.9467 82.9895 69.988 82.0001 64.8333 82.0001C24.5853 82.0001 0 120.064 0 157.143C0 196.397 23.592 234.864 66.2213 234.864Z" fill="white"/>
<path d="M126.871 159.325C135.794 159.325 133.811 173.202 133.811 178.358V233.278H161.767V168.642C161.767 154.169 163.551 131.169 142.932 131.169C132.026 131.169 123.5 139.101 119.735 148.617H119.339V84.4731H91.3804V233.278H119.339V170.822C119.339 165.866 120.526 159.325 126.871 159.325Z" fill="white"/>
<path d="M221.227 173.401H200.805V170.427C200.805 164.083 202.588 152.583 211.115 152.583C219.839 152.583 221.227 164.479 221.227 171.021V173.401ZM211.512 131.169C182.365 131.169 173.643 161.307 173.643 185.297C173.643 210.083 183.752 235.261 212.105 235.261C232.529 235.261 241.451 220.786 243.828 202.346H220.036C220.036 208.297 218.252 213.849 211.115 213.849C200.409 213.849 200.805 197.986 200.605 190.651H244.82L245.415 179.15C247 147.625 229.949 131.169 211.512 131.169Z" fill="white"/>
<path d="M352.241 131.169C341.534 131.169 332.81 139.3 328.252 148.221H327.854C326.466 139.101 320.914 131.169 310.604 131.169C298.708 131.169 290.777 139.497 286.018 149.213H285.622L285.425 133.153H257.468V233.278H285.425V171.021C285.425 165.866 286.416 159.524 293.357 159.524C301.286 159.524 299.898 172.21 299.898 177.169V233.278H327.854V170.426C327.854 165.866 328.846 159.125 335.388 159.125C343.716 159.125 342.325 173.8 342.325 178.953V230.872C346.598 224.853 356.369 211.606 370.285 195.797V164.082C370.285 151.194 370.285 131.169 352.241 131.169Z" fill="white"/>
<path d="M370.285 233.278V232.346C370.079 232.661 369.881 232.966 369.677 233.278H370.285Z" fill="white"/>
<path d="M25.622 269.488H9.266L8.56866 273.451H14.4007L11.39 290.568H15.922L18.934 273.451H24.9553L25.622 269.488Z" fill="white"/>
<path d="M36.0179 274.022C34.4965 274.022 32.9432 274.559 31.7699 275.574L33.0379 268.538H28.6005L24.7019 290.567H29.1392L30.9459 280.203C31.2312 278.713 32.5632 277.445 34.2112 277.445C35.4152 277.445 35.7645 278.079 35.7325 279.125C35.7325 279.474 35.6685 279.918 35.6059 280.329L33.7979 290.567H38.2365L40.1059 279.981C40.2339 279.219 40.2965 278.491 40.2965 277.921C40.2965 275.353 38.8072 274.022 36.0179 274.022Z" fill="white"/>
<path d="M47.3641 281.407C47.7761 279.474 49.0761 277.191 51.3895 277.191C52.2135 277.191 52.8161 277.635 52.8161 278.459C52.8161 280.773 49.2028 281.407 47.3641 281.407ZM56.7788 277.921C56.7788 275.511 55.0028 274.022 52.0241 274.022C46.0961 274.022 42.5455 279.189 42.5455 284.607C42.5455 288.318 44.4161 291.043 48.8535 291.043C52.2135 291.043 54.4961 289.743 55.2255 289.205L54.1148 286.321C53.1335 286.922 51.7068 287.683 49.9948 287.683C47.6495 287.683 46.9201 286.035 47.0148 284.291C50.4388 284.165 56.7788 283.373 56.7788 277.921Z" fill="white"/>
<path d="M79.3772 277.889H71.3892L72.8479 269.488H68.3145L64.6065 290.568H69.1385L70.6919 281.85H78.6799L77.1265 290.568H81.7225L85.4319 269.488H80.8359L79.3772 277.889Z" fill="white"/>
<path d="M91.1356 281.407C91.5476 279.474 92.8476 277.191 95.1609 277.191C95.9849 277.191 96.5876 277.635 96.5876 278.459C96.5876 280.773 92.9743 281.407 91.1356 281.407ZM100.55 277.921C100.55 275.511 98.7743 274.022 95.7956 274.022C89.8676 274.022 86.3169 279.189 86.3169 284.607C86.3169 288.318 88.1876 291.043 92.6249 291.043C95.9849 291.043 98.2676 289.743 98.9969 289.205L97.8863 286.321C96.9049 286.922 95.4783 287.683 93.7663 287.683C91.4209 287.683 90.6916 286.035 90.7863 284.291C94.2103 284.165 100.55 283.373 100.55 277.921Z" fill="white"/>
<path d="M111.579 285.496C111.356 286.669 110.216 287.841 108.536 287.841C106.856 287.841 106.318 286.384 106.318 284.672C106.318 281.788 107.458 277.191 111.072 277.191C111.864 277.191 112.594 277.317 112.974 277.508L111.579 285.496ZM101.879 285.18C101.879 288.444 103.211 291.075 106.983 291.075C108.948 291.075 110.438 290.188 111.515 288.919L111.642 288.951L111.611 290.568H115.383L115.604 287.365L117.76 275.193C115.51 274.307 113.195 274.023 111.864 274.023C105.494 274.023 101.879 278.712 101.879 285.18Z" fill="white"/>
<path d="M125.556 287.588C124.7 287.588 124.288 287.303 124.256 286.415C124.256 286.066 124.32 285.591 124.415 285.116L127.332 268.538H122.894L119.978 285.147C119.819 285.94 119.724 286.7 119.724 287.46C119.724 289.679 120.77 291.043 123.782 291.043C125.176 291.043 127.015 290.663 128.092 290.028L127.584 287.05C126.824 287.366 126.127 287.588 125.556 287.588Z" fill="white"/>
<path d="M138.045 268.537H133.607L130.659 285.275C130.501 286.065 130.406 286.795 130.406 287.524C130.406 289.395 131.325 291.043 134.843 291.043C136.429 291.043 138.298 290.567 139.377 289.901L138.71 287.08C138.171 287.365 137.41 287.683 136.713 287.683C135.731 287.683 135.002 287.493 134.97 286.32C134.97 286.035 135.034 285.591 135.065 285.275L136.365 277.952H140.517L141.119 274.497H136.967L138.045 268.537Z" fill="white"/>
<path d="M152.847 274.022C151.325 274.022 149.772 274.559 148.599 275.574L149.867 268.538H145.429L141.531 290.567H145.968L147.775 280.203C148.06 278.713 149.392 277.445 151.04 277.445C152.244 277.445 152.593 278.079 152.561 279.125C152.561 279.474 152.497 279.918 152.435 280.329L150.628 290.567H155.065L156.935 279.981C157.063 279.219 157.125 278.491 157.125 277.921C157.125 275.353 155.636 274.022 152.847 274.022Z" fill="white"/>
<path d="M159.026 290.567H163.464L166.317 274.497H161.88L159.026 290.567Z" fill="white"/>
<path d="M165.27 267.554C163.622 267.554 162.386 268.822 162.386 270.281C162.386 271.421 163.146 272.246 164.478 272.246C166.094 272.246 167.362 271.074 167.362 269.552C167.362 268.442 166.57 267.554 165.27 267.554Z" fill="white"/>
<path d="M172.561 281.407C172.973 279.474 174.273 277.191 176.586 277.191C177.41 277.191 178.013 277.635 178.013 278.459C178.013 280.773 174.399 281.407 172.561 281.407ZM181.975 277.921C181.975 275.511 180.199 274.022 177.221 274.022C171.293 274.022 167.742 279.189 167.742 284.607C167.742 288.318 169.613 291.043 174.05 291.043C177.41 291.043 179.693 289.743 180.422 289.205L179.311 286.321C178.33 286.922 176.903 287.683 175.191 287.683C172.846 287.683 172.117 286.035 172.211 284.291C175.635 284.165 181.975 283.373 181.975 277.921Z" fill="white"/>
<path d="M194.462 278.301L195.794 274.655C195.224 274.274 194.272 274.022 193.29 274.022C191.768 274.022 190.12 274.845 189.074 276.778V274.497H185.461L185.302 277.286L182.957 290.567H187.394L189.169 280.583C189.518 278.902 190.786 277.762 192.338 277.762C193.162 277.762 193.86 277.985 194.462 278.301Z" fill="white"/>
<path d="M196.395 286.7C195.349 286.7 194.747 287.303 194.303 288.412C193.859 289.458 193.162 291.36 192.117 294.942L194.335 295.703L199.058 288.19C198.646 287.683 197.537 286.7 196.395 286.7Z" fill="white"/>
<path d="M216.649 287.017H213.924L216.396 273.07H218.773C221.372 273.07 223.432 274.179 223.432 278.015C223.432 283.562 220.769 287.017 216.649 287.017ZM219.565 269.489H212.465L208.757 290.567H215.983C222.481 290.567 228.124 286.922 228.124 277.541C228.124 272.278 224.923 269.489 219.565 269.489Z" fill="white"/>
<path d="M234.62 281.407C235.032 279.474 236.332 277.191 238.645 277.191C239.469 277.191 240.072 277.635 240.072 278.459C240.072 280.773 236.459 281.407 234.62 281.407ZM244.035 277.921C244.035 275.511 242.259 274.022 239.28 274.022C233.352 274.022 229.801 279.189 229.801 284.607C229.801 288.318 231.672 291.043 236.109 291.043C239.469 291.043 241.752 289.743 242.481 289.205L241.371 286.321C240.389 286.922 238.963 287.683 237.251 287.683C234.905 287.683 234.176 286.035 234.271 284.291C237.695 284.165 244.035 283.373 244.035 277.921Z" fill="white"/>
<path d="M250.183 281.407C250.595 279.474 251.895 277.191 254.208 277.191C255.032 277.191 255.635 277.635 255.635 278.459C255.635 280.773 252.021 281.407 250.183 281.407ZM259.597 277.921C259.597 275.511 257.821 274.022 254.843 274.022C248.915 274.022 245.364 279.189 245.364 284.607C245.364 288.318 247.235 291.043 251.672 291.043C255.032 291.043 257.315 289.743 258.044 289.205L256.933 286.321C255.952 286.922 254.525 287.683 252.813 287.683C250.468 287.683 249.739 286.035 249.833 284.291C253.257 284.165 259.597 283.373 259.597 277.921Z" fill="white"/>
<path d="M268.185 287.778C267.202 287.778 266.314 287.365 265.808 286.954L267.488 277.73C268.058 277.572 268.914 277.413 269.706 277.413C271.64 277.413 272.21 278.712 272.21 280.614C272.21 284.798 270.309 287.778 268.185 287.778ZM270.341 274.022C268.724 274.022 266.093 274.338 263.493 275.132L259.626 297.224H264.033L265.269 290.313C265.934 290.726 267.106 291.042 268.185 291.042C273.32 291.042 276.648 286.954 276.648 280.52C276.648 276.272 274.588 274.022 270.341 274.022Z" fill="white"/>
<path d="M283.526 281.407C283.938 279.474 285.238 277.191 287.551 277.191C288.375 277.191 288.978 277.635 288.978 278.459C288.978 280.773 285.364 281.407 283.526 281.407ZM292.94 277.921C292.94 275.511 291.164 274.022 288.186 274.022C282.258 274.022 278.707 279.189 278.707 284.607C278.707 288.318 280.578 291.043 285.015 291.043C288.375 291.043 290.658 289.743 291.387 289.205L290.276 286.321C289.295 286.922 287.868 287.683 286.156 287.683C283.811 287.683 283.082 286.035 283.176 284.291C286.6 284.165 292.94 283.373 292.94 277.921Z" fill="white"/>
<path d="M300.039 276.778V274.497H296.426L296.267 277.286L293.922 290.568H298.359L300.134 280.584C300.483 278.902 301.751 277.761 303.303 277.761C304.127 277.761 304.825 277.984 305.427 278.301L306.759 274.654C306.189 274.274 305.237 274.022 304.255 274.022C302.734 274.022 301.085 274.845 300.039 276.778Z" fill="white"/>
<path d="M414.143 152.613V110.351C428.328 110.351 436.267 120.553 440.434 132.832C448.856 127.221 457.627 122.089 466.679 117.681C450.136 79.14 411.058 83.784 407.007 83.784H384.6V180.272C393.436 171.129 403.35 161.669 414.143 152.613Z" fill="white"/>
<path d="M474.021 159.721C474.021 147.8 472.755 137.741 470.577 129.245C461.201 134.888 452.257 141.298 443.801 148.208C444.275 152.182 444.478 156.04 444.478 159.524C444.478 178.158 437.934 207.901 414.143 206.71V176.13C402.947 188.102 393.051 200.36 384.601 211.805V233.278H410.969C457.562 233.278 474.021 202.346 474.021 159.721Z" fill="white"/>
<path d="M514.441 145.247H514.044V133.154H486.088V233.278H514.044V183.315C514.044 168.445 514.243 156.154 532.881 156.154C534.465 156.154 535.856 156.351 537.241 156.547V129.386C526.339 130.378 519.595 136.523 514.441 145.247Z" fill="white"/>
<path d="M603.658 133.153L590.574 190.252H590.178L586.802 173.599L576.296 133.153H548.142L577.287 231.296L561.23 282.648H588.788L631.811 133.153H603.658Z" fill="white"/>
<path d="M322.834 287.208C320.012 287.208 318.744 285.18 318.744 281.883C318.744 276.336 321.407 272.912 325.052 272.912C326.796 272.912 328.031 273.832 329.046 275.512L332.438 273.419C330.916 270.725 328.571 269.14 325.275 269.14C320.076 269.14 314.022 272.468 314.022 282.484C314.022 287.936 317 290.948 321.946 290.948C324.799 290.948 327.207 290.028 329.775 288L327.936 285.052C326.224 286.384 324.546 287.208 322.834 287.208Z" fill="white"/>
<path d="M341.565 285.496C341.342 286.669 340.202 287.841 338.522 287.841C336.842 287.841 336.303 286.384 336.303 284.672C336.303 281.788 337.443 277.191 341.057 277.191C341.85 277.191 342.579 277.317 342.959 277.508L341.565 285.496ZM331.866 285.18C331.866 288.444 333.197 291.075 336.969 291.075C338.933 291.075 340.425 290.188 341.501 288.919L341.629 288.951L341.595 290.568H345.369L345.591 287.365L347.746 275.193C345.495 274.307 343.181 274.023 341.85 274.023C335.479 274.023 331.866 278.712 331.866 285.18Z" fill="white"/>
<path d="M361.914 274.655C361.342 274.275 360.391 274.021 359.41 274.021C357.887 274.021 356.239 274.845 355.194 276.779V274.497H351.58L351.422 277.287L349.075 290.568H353.514L355.288 280.583C355.638 278.903 356.904 277.761 358.458 277.761C359.282 277.761 359.98 277.984 360.582 278.3L361.914 274.655Z" fill="white"/>
<path d="M369.044 287.778C368.061 287.778 367.175 287.365 366.667 286.954L368.347 277.73C368.917 277.572 369.773 277.413 370.565 277.413C372.499 277.413 373.071 278.712 373.071 280.614C373.071 284.798 371.168 287.778 369.044 287.778ZM371.199 274.022C369.583 274.022 366.952 274.338 364.352 275.132L360.485 297.224H364.892L366.127 290.313C366.795 290.726 367.965 291.042 369.044 291.042C374.18 291.042 377.508 286.954 377.508 280.52C377.508 276.272 375.447 274.022 371.199 274.022Z" fill="white"/>
<path d="M384.384 281.407C384.797 279.474 386.096 277.191 388.41 277.191C389.234 277.191 389.837 277.635 389.837 278.459C389.837 280.773 386.222 281.407 384.384 281.407ZM393.8 277.921C393.8 275.511 392.022 274.022 389.044 274.022C383.117 274.022 379.566 279.189 379.566 284.607C379.566 288.318 381.436 291.043 385.874 291.043C389.234 291.043 391.517 289.743 392.245 289.205L391.136 286.321C390.153 286.922 388.728 287.683 387.016 287.683C384.67 287.683 383.941 286.035 384.036 284.291C387.46 284.165 393.8 283.373 393.8 277.921Z" fill="white"/>
<path d="M403.084 268.537H398.647L395.699 285.275C395.541 286.065 395.445 286.795 395.445 287.524C395.445 289.395 396.365 291.043 399.884 291.043C401.468 291.043 403.337 290.567 404.416 289.901L403.751 287.08C403.212 287.365 402.451 287.683 401.753 287.683C400.771 287.683 400.043 287.493 400.009 286.32C400.009 286.035 400.073 285.591 400.105 285.275L401.404 277.952H405.556L406.16 274.497H402.007L403.084 268.537Z" fill="white"/>
<path d="M425.303 272.913C427.047 272.913 428.283 273.831 429.298 275.511L432.688 273.419C431.167 270.725 428.823 269.141 425.526 269.141C420.327 269.141 414.274 272.469 414.274 282.485C414.274 287.937 417.252 290.947 422.198 290.947C425.051 290.947 427.459 290.029 430.027 287.999L428.188 285.051C426.476 286.385 424.796 287.209 423.084 287.209C420.264 287.209 418.996 285.179 418.996 281.883C418.996 276.335 421.659 272.913 425.303 272.913Z" fill="white"/>
<path d="M438.838 287.588C437.981 287.588 437.57 287.303 437.537 286.415C437.537 286.066 437.601 285.591 437.697 285.116L440.613 268.538H436.175L433.258 285.147C433.099 285.94 433.005 286.7 433.005 287.46C433.005 289.679 434.051 291.043 437.062 291.043C438.457 291.043 440.295 290.663 441.373 290.028L440.866 287.05C440.105 287.366 439.409 287.588 438.838 287.588Z" fill="white"/>
<path d="M447.997 281.407C448.41 279.474 449.709 277.191 452.024 277.191C452.848 277.191 453.45 277.635 453.45 278.459C453.45 280.773 449.836 281.407 447.997 281.407ZM457.413 277.921C457.413 275.511 455.636 274.022 452.657 274.022C446.73 274.022 443.18 279.189 443.18 284.607C443.18 288.318 445.05 291.043 449.488 291.043C452.848 291.043 455.13 289.743 455.858 289.205L454.749 286.321C453.766 286.922 452.341 287.683 450.629 287.683C448.284 287.683 447.554 286.035 447.649 284.291C451.073 284.165 457.413 283.373 457.413 277.921Z" fill="white"/>
<path d="M468.441 285.496C468.22 286.669 467.08 287.841 465.398 287.841C463.718 287.841 463.18 286.384 463.18 284.672C463.18 281.788 464.321 277.191 467.934 277.191C468.728 277.191 469.456 277.317 469.837 277.508L468.441 285.496ZM458.742 285.18C458.742 288.444 460.074 291.075 463.846 291.075C465.81 291.075 467.301 290.188 468.378 288.919L468.505 288.951L468.473 290.568H472.246L472.468 287.365L474.622 275.193C472.372 274.307 470.058 274.023 468.728 274.023C462.356 274.023 458.742 278.712 458.742 285.18Z" fill="white"/>
<path d="M487.332 274.022C485.208 274.022 483.465 274.909 482.133 276.398L482.165 274.497H478.457L478.234 277.477L475.952 290.567H480.326L482.165 280.266C482.418 278.745 483.749 277.445 485.462 277.445C486.666 277.445 486.982 278.174 486.952 279.189C486.918 279.601 486.918 280.013 486.824 280.455L485.049 290.567H489.456L491.389 279.726C491.484 279.125 491.58 278.427 491.58 277.921C491.548 275.258 489.994 274.022 487.332 274.022Z" fill="white"/>
<path d="M498.614 281.407C499.027 279.474 500.326 277.191 502.641 277.191C503.465 277.191 504.067 277.635 504.067 278.459C504.067 280.773 500.453 281.407 498.614 281.407ZM508.03 277.921C508.03 275.511 506.253 274.022 503.274 274.022C497.347 274.022 493.797 279.189 493.797 284.607C493.797 288.318 495.667 291.043 500.105 291.043C503.465 291.043 505.747 289.743 506.475 289.205L505.366 286.321C504.383 286.922 502.958 287.683 501.246 287.683C498.901 287.683 498.171 286.035 498.266 284.291C501.69 284.165 508.03 283.373 508.03 277.921Z" fill="white"/>
<path d="M515.128 276.778V274.497H511.515L511.356 277.286L509.01 290.568H513.448L515.223 280.584C515.572 278.902 516.839 277.761 518.392 277.761C519.216 277.761 519.915 277.984 520.516 278.301L521.848 274.654C521.276 274.274 520.326 274.022 519.344 274.022C517.823 274.022 516.174 274.845 515.128 276.778Z" fill="white"/>
<path d="M528.449 273.824C526.898 273.824 525.753 272.697 525.753 271.053C525.753 269.447 526.823 268.3 528.449 268.3C530.057 268.3 531.239 269.447 531.239 271.053C531.239 272.735 530.075 273.824 528.449 273.824ZM528.449 267.507C526.343 267.507 524.847 269.02 524.847 271.053C524.847 273.104 526.233 274.6 528.449 274.6C530.629 274.6 532.143 273.104 532.143 271.017C532.143 269.02 530.629 267.507 528.449 267.507Z" fill="white"/>
<path d="M528.394 270.776H527.987V269.668H528.319C528.745 269.668 529.058 269.743 529.058 270.167C529.058 270.573 528.837 270.776 528.394 270.776ZM529.262 271.164C529.613 270.999 529.89 270.665 529.89 270.092C529.89 269.428 529.41 269.059 528.634 269.059H527.211V272.956H527.987V271.405H528.43C528.579 271.405 528.651 271.477 528.726 271.663L529.317 272.956H530.186L529.502 271.441C529.466 271.349 529.391 271.22 529.262 271.164Z" fill="white"/>
</g>
</g>
<path d="M10.3926 75L20.9541 25.0293H34.6943C37.8389 25.0293 40.5505 25.4167 42.8291 26.1914C45.1077 26.9661 46.8623 28.1738 48.0928 29.8145C49.346 31.4551 49.9727 33.597 49.9727 36.2402C49.9727 38.4961 49.5169 40.5013 48.6055 42.2559C47.7168 43.9876 46.4408 45.4232 44.7773 46.5625C43.1367 47.679 41.1657 48.4652 38.8643 48.9209V49.2285C41.1657 49.8438 43.0342 50.9831 44.4697 52.6465C45.9053 54.2871 46.623 56.429 46.623 59.0723C46.623 62.6725 45.7686 65.6576 44.0596 68.0273C42.3734 70.3743 40.0605 72.1289 37.1211 73.291C34.2044 74.4303 30.8776 75 27.1406 75H10.3926ZM19.9287 68.1299H27.585C29.7725 68.1299 31.6637 67.7881 33.2588 67.1045C34.8766 66.4209 36.1185 65.4069 36.9844 64.0625C37.873 62.7181 38.3174 61.0661 38.3174 59.1064C38.3174 57.0329 37.668 55.3695 36.3691 54.1162C35.0931 52.863 33.0423 52.2363 30.2168 52.2363H23.3125L19.9287 68.1299ZM24.6797 45.6396H31.5156C33.4525 45.6396 35.1729 45.3662 36.6768 44.8193C38.2035 44.2497 39.3997 43.3838 40.2656 42.2217C41.1543 41.0368 41.5986 39.5329 41.5986 37.71C41.5986 35.7959 40.9834 34.3376 39.7529 33.335C38.5452 32.3324 36.6084 31.8311 33.9424 31.8311H27.6191L24.6797 45.6396ZM49.5652 75L57.5975 37.1631H63.8523L63.032 44.3066H63.408C64.3878 42.8483 65.4474 41.5267 66.5867 40.3418C67.7488 39.1569 69.0363 38.2113 70.449 37.5049C71.8618 36.7985 73.4341 36.4453 75.1658 36.4453C75.7811 36.4453 76.4191 36.4909 77.0799 36.582C77.7635 36.6504 78.3559 36.7529 78.8572 36.8896L77.1141 44.4092C76.6128 44.2725 76.0659 44.1585 75.4734 44.0674C74.881 43.9762 74.2544 43.9307 73.5936 43.9307C72.0896 43.9307 70.6769 44.2839 69.3553 44.9902C68.0337 45.6966 66.8374 46.6764 65.7664 47.9297C64.6954 49.1829 63.7726 50.6527 62.9979 52.3389C62.2231 54.0023 61.6193 55.8138 61.1863 57.7734L57.5633 75H49.5652ZM75.3395 75L83.3717 37.1631H91.3697L83.3375 75H75.3395ZM89.148 31.4893C87.9632 31.4893 86.9719 31.2044 86.1744 30.6348C85.3769 30.0423 84.9781 29.1195 84.9781 27.8662C84.9781 26.818 85.1718 25.9066 85.5592 25.1318C85.9693 24.3571 86.5504 23.7646 87.3023 23.3545C88.0771 22.9215 88.9999 22.7051 90.0709 22.7051C91.2558 22.7051 92.2242 22.9899 92.9762 23.5596C93.7281 24.1064 94.1041 24.9951 94.1041 26.2256C94.1041 27.8206 93.6598 29.0967 92.7711 30.0537C91.8824 31.0107 90.6747 31.4893 89.148 31.4893ZM91.8168 75L99.849 37.1631H106.104L105.284 44.3066H105.625C106.514 42.9622 107.539 41.6976 108.702 40.5127C109.886 39.305 111.219 38.3252 112.701 37.5732C114.204 36.8213 115.891 36.4453 117.759 36.4453C120.402 36.4453 122.419 37.1745 123.809 38.6328C125.222 40.0911 126.099 42.085 126.441 44.6143H126.714C127.649 43.1559 128.731 41.8115 129.961 40.5811C131.215 39.3506 132.616 38.3594 134.165 37.6074C135.738 36.8327 137.447 36.4453 139.292 36.4453C142.346 36.4453 144.659 37.334 146.231 39.1113C147.803 40.8887 148.589 43.3724 148.589 46.5625C148.589 47.5195 148.521 48.4993 148.384 49.502C148.27 50.5046 148.088 51.5413 147.837 52.6123L143.121 75H135.122L140.01 52.0312C140.192 51.1426 140.329 50.3451 140.42 49.6387C140.534 48.9095 140.591 48.2259 140.591 47.5879C140.591 46.1068 140.238 44.9788 139.532 44.2041C138.848 43.4066 137.8 43.0078 136.387 43.0078C135.202 43.0078 134.029 43.361 132.867 44.0674C131.727 44.7738 130.645 45.7992 129.62 47.1436C128.594 48.488 127.683 50.1172 126.885 52.0312C126.088 53.9225 125.438 56.0645 124.937 58.457L121.451 75H113.487L118.306 52.0996C118.511 51.1882 118.659 50.3678 118.75 49.6387C118.842 48.9095 118.887 48.2715 118.887 47.7246C118.887 46.1979 118.557 45.0358 117.896 44.2383C117.258 43.418 116.232 43.0078 114.82 43.0078C113.635 43.0078 112.461 43.361 111.299 44.0674C110.137 44.7738 109.043 45.8105 108.018 47.1777C106.993 48.5449 106.07 50.2083 105.249 52.168C104.429 54.1048 103.757 56.3265 103.233 58.833L99.8148 75H91.8168ZM151.19 75L162.503 21.8164H170.467L159.188 75H151.19ZM183.663 75.6836C180.769 75.6836 178.24 75.1367 176.075 74.043C173.933 72.9264 172.27 71.2972 171.085 69.1553C169.923 66.9906 169.342 64.3473 169.342 61.2256C169.342 58.1266 169.786 55.1074 170.675 52.168C171.563 49.2057 172.874 46.5397 174.605 44.1699C176.337 41.8001 178.445 39.9202 180.929 38.5303C183.412 37.1403 186.238 36.4453 189.405 36.4453C193.279 36.4453 196.184 37.3226 198.121 39.0771C200.081 40.8089 201.061 43.1104 201.061 45.9814C201.061 47.9411 200.616 49.7298 199.728 51.3477C198.839 52.9655 197.483 54.3669 195.66 55.5518C193.86 56.7139 191.57 57.6139 188.79 58.252C186.033 58.89 182.786 59.209 179.049 59.209H177.511C177.488 59.5508 177.465 59.904 177.442 60.2686C177.42 60.6104 177.408 60.9521 177.408 61.2939C177.408 63.8232 178.069 65.8171 179.391 67.2754C180.712 68.7109 182.638 69.4287 185.167 69.4287C187.081 69.4287 188.847 69.1895 190.465 68.7109C192.083 68.2324 193.894 67.5146 195.899 66.5576V72.8809C194.054 73.7695 192.185 74.4645 190.294 74.9658C188.403 75.4443 186.192 75.6836 183.663 75.6836ZM178.502 53.3984H179.664C182.444 53.3984 184.859 53.1364 186.91 52.6123C188.961 52.0654 190.545 51.2679 191.661 50.2197C192.778 49.1488 193.336 47.8499 193.336 46.3232C193.336 45.1383 192.96 44.2155 192.208 43.5547C191.479 42.8711 190.385 42.5293 188.927 42.5293C187.491 42.5293 186.078 42.9736 184.688 43.8623C183.299 44.7282 182.057 45.9814 180.963 47.6221C179.869 49.2399 179.049 51.1654 178.502 53.3984ZM199.354 91.8164C198.192 91.8164 197.247 91.748 196.517 91.6113C195.765 91.4746 195.082 91.3151 194.467 91.1328V84.7412C195.082 84.8779 195.731 84.9919 196.415 85.083C197.098 85.1969 197.85 85.2539 198.671 85.2539C200.699 85.2539 202.396 84.6387 203.763 83.4082C205.153 82.2005 206.429 80.5257 207.592 78.3838L209.335 75.2051L203.661 37.1631H211.591L213.846 55.6201C214.006 56.8962 214.131 58.2633 214.222 59.7217C214.336 61.18 214.416 62.5928 214.462 63.96C214.507 65.3044 214.53 66.4437 214.53 67.3779H214.769C215.088 66.6032 215.487 65.6234 215.966 64.4385C216.444 63.2536 216.98 61.9889 217.572 60.6445C218.165 59.3001 218.757 58.0469 219.349 56.8848L229.398 37.1631H238.046L214.428 80.9814C213.129 83.3968 211.727 85.4134 210.223 87.0312C208.742 88.6491 207.113 89.8454 205.336 90.6201C203.558 91.4176 201.565 91.8164 199.354 91.8164ZM235.69 42.1533C236.51 40.3076 237.331 38.3708 238.151 36.3428C238.994 34.3148 239.792 32.321 240.544 30.3613C241.318 28.4017 241.979 26.6243 242.526 25.0293H250.456L250.729 25.7812C250 27.4219 249.145 29.1878 248.166 31.0791C247.186 32.9476 246.138 34.8389 245.021 36.7529C243.927 38.6442 242.822 40.4443 241.706 42.1533H235.69ZM253.945 75.6836C251.575 75.6836 249.501 75.4785 247.724 75.0684C245.969 74.681 244.386 74.1113 242.973 73.3594V66.4893C244.431 67.3551 246.072 68.0843 247.895 68.6768C249.741 69.2464 251.632 69.5312 253.569 69.5312C255.073 69.5312 256.383 69.3262 257.499 68.916C258.616 68.5059 259.482 67.9248 260.097 67.1729C260.735 66.3981 261.054 65.4639 261.054 64.3701C261.054 63.5726 260.872 62.8662 260.507 62.251C260.143 61.6357 259.516 61.0091 258.627 60.3711C257.739 59.7331 256.508 58.9697 254.936 58.0811C253.273 57.1468 251.86 56.2012 250.698 55.2441C249.558 54.2643 248.681 53.182 248.066 51.9971C247.473 50.8122 247.177 49.4222 247.177 47.8271C247.177 45.4346 247.724 43.3952 248.818 41.709C249.934 40 251.507 38.7012 253.535 37.8125C255.585 36.901 258.001 36.4453 260.781 36.4453C263.014 36.4453 265.121 36.7074 267.104 37.2314C269.086 37.7327 270.921 38.4391 272.607 39.3506L269.975 45.2979C268.722 44.5915 267.332 43.9876 265.805 43.4863C264.278 42.9622 262.638 42.7002 260.883 42.7002C259.265 42.7002 257.91 43.0762 256.816 43.8281C255.745 44.5801 255.209 45.651 255.209 47.041C255.209 47.7702 255.38 48.431 255.722 49.0234C256.087 49.5931 256.691 50.1742 257.534 50.7666C258.377 51.359 259.527 52.0426 260.986 52.8174C262.558 53.6833 263.959 54.5947 265.19 55.5518C266.42 56.5088 267.389 57.6139 268.095 58.8672C268.802 60.0977 269.155 61.5902 269.155 63.3447C269.155 66.0107 268.528 68.2666 267.275 70.1123C266.044 71.9352 264.29 73.3252 262.011 74.2822C259.732 75.2165 257.044 75.6836 253.945 75.6836Z" fill="white"/>
<path d="M289.818 75L287.973 25.0293H295.697L296.347 54.2871C296.392 56.11 296.381 58.0583 296.312 60.1318C296.244 62.1826 296.142 64.1195 296.005 65.9424H296.244C296.882 64.1423 297.611 62.1712 298.432 60.0293C299.275 57.8646 300.106 55.9163 300.927 54.1846L314.325 25.0293H321.879L322.973 54.1504C323.064 55.791 323.109 57.7279 323.109 59.9609C323.109 62.1712 323.075 64.1764 323.007 65.9766H323.246C323.656 64.7461 324.101 63.4473 324.579 62.0801C325.08 60.7129 325.582 59.3571 326.083 58.0127C326.607 56.6455 327.12 55.3695 327.621 54.1846L340.028 25.0293H348.368L325.98 75H317.128L316.034 47.041C315.989 45.5371 315.943 44.1813 315.897 42.9736C315.875 41.7432 315.852 40.5924 315.829 39.5215C315.829 38.4505 315.84 37.391 315.863 36.3428H315.624C315.123 37.9606 314.564 39.5443 313.949 41.0938C313.334 42.6204 312.605 44.3066 311.762 46.1523L298.534 75H289.818ZM341.022 75L352.302 21.8164H360.265L357.77 33.335C357.588 34.3376 357.337 35.4313 357.018 36.6162C356.722 37.8011 356.403 38.9746 356.061 40.1367C355.742 41.2988 355.435 42.3698 355.138 43.3496H355.446C356.358 42.1647 357.383 41.0482 358.522 40C359.684 38.9518 360.983 38.1087 362.419 37.4707C363.877 36.8099 365.495 36.4795 367.272 36.4795C369.346 36.4795 371.1 36.8896 372.536 37.71C373.971 38.5075 375.065 39.6696 375.817 41.1963C376.569 42.7002 376.945 44.5459 376.945 46.7334C376.945 47.5993 376.877 48.5335 376.74 49.5361C376.603 50.516 376.421 51.5413 376.193 52.6123L371.442 75H363.444L368.298 52.0312C368.503 51.1426 368.651 50.3451 368.742 49.6387C368.833 48.9323 368.879 48.2943 368.879 47.7246C368.879 46.1751 368.514 45.0016 367.785 44.2041C367.056 43.4066 365.928 43.0078 364.401 43.0078C362.783 43.0078 361.188 43.6344 359.616 44.8877C358.044 46.1182 356.631 47.9183 355.378 50.2881C354.124 52.6351 353.145 55.4834 352.438 58.833L349.02 75H341.022ZM379.58 75L387.612 37.1631H395.61L387.578 75H379.58ZM393.388 31.4893C392.203 31.4893 391.212 31.2044 390.415 30.6348C389.617 30.0423 389.218 29.1195 389.218 27.8662C389.218 26.818 389.412 25.9066 389.799 25.1318C390.21 24.3571 390.791 23.7646 391.543 23.3545C392.317 22.9215 393.24 22.7051 394.311 22.7051C395.496 22.7051 396.464 22.9899 397.216 23.5596C397.968 24.1064 398.344 24.9951 398.344 26.2256C398.344 27.8206 397.9 29.0967 397.011 30.0537C396.123 31.0107 394.915 31.4893 393.388 31.4893ZM407.746 75.6836C404.989 75.6836 402.745 75.0684 401.013 73.8379C399.304 72.5846 398.45 70.3971 398.45 67.2754C398.45 66.6602 398.484 65.988 398.552 65.2588C398.643 64.5068 398.769 63.7321 398.928 62.9346L403.098 43.2471H397.629L398.381 39.4189L404.841 36.7871L409.148 28.7891H414.172L412.395 37.1631H422.034L420.735 43.2471H411.13L406.926 62.9688C406.812 63.4473 406.71 63.96 406.619 64.5068C406.55 65.0309 406.516 65.5094 406.516 65.9424C406.516 66.9678 406.801 67.7653 407.371 68.335C407.94 68.9046 408.806 69.1895 409.968 69.1895C410.857 69.1895 411.711 69.0983 412.532 68.916C413.352 68.7337 414.252 68.4717 415.232 68.1299V74.1797C414.389 74.5671 413.295 74.9089 411.951 75.2051C410.606 75.5241 409.205 75.6836 407.746 75.6836ZM435.127 75.6836C432.233 75.6836 429.704 75.1367 427.539 74.043C425.397 72.9264 423.734 71.2972 422.549 69.1553C421.387 66.9906 420.806 64.3473 420.806 61.2256C420.806 58.1266 421.25 55.1074 422.139 52.168C423.028 49.2057 424.338 46.5397 426.07 44.1699C427.801 41.8001 429.909 39.9202 432.393 38.5303C434.877 37.1403 437.702 36.4453 440.869 36.4453C444.743 36.4453 447.648 37.3226 449.585 39.0771C451.545 40.8089 452.525 43.1104 452.525 45.9814C452.525 47.9411 452.08 49.7298 451.192 51.3477C450.303 52.9655 448.947 54.3669 447.124 55.5518C445.324 56.7139 443.034 57.6139 440.254 58.252C437.497 58.89 434.25 59.209 430.513 59.209H428.975C428.952 59.5508 428.929 59.904 428.906 60.2686C428.884 60.6104 428.872 60.9521 428.872 61.2939C428.872 63.8232 429.533 65.8171 430.855 67.2754C432.176 68.7109 434.102 69.4287 436.631 69.4287C438.545 69.4287 440.311 69.1895 441.929 68.7109C443.547 68.2324 445.358 67.5146 447.363 66.5576V72.8809C445.518 73.7695 443.649 74.4645 441.758 74.9658C439.867 75.4443 437.656 75.6836 435.127 75.6836ZM429.966 53.3984H431.128C433.908 53.3984 436.323 53.1364 438.374 52.6123C440.425 52.0654 442.009 51.2679 443.125 50.2197C444.242 49.1488 444.8 47.8499 444.8 46.3232C444.8 45.1383 444.424 44.2155 443.672 43.5547C442.943 42.8711 441.849 42.5293 440.391 42.5293C438.955 42.5293 437.543 42.9736 436.153 43.8623C434.763 44.7282 433.521 45.9814 432.427 47.6221C431.333 49.2399 430.513 51.1654 429.966 53.3984Z" fill="white"/>
<path d="M488.311 75.6836C482.454 75.6836 477.886 74.0316 474.604 70.7275C471.323 67.4007 469.683 62.6611 469.683 56.5088C469.683 52.9769 470.093 49.6045 470.913 46.3916C471.733 43.1559 472.93 40.1937 474.502 37.5049C476.074 34.8161 478 32.4805 480.278 30.498C482.58 28.5156 485.189 26.9889 488.105 25.918C491.045 24.8242 494.269 24.2773 497.778 24.2773C500.558 24.2773 503.076 24.5508 505.332 25.0977C507.611 25.6217 509.832 26.3965 511.997 27.4219L508.921 34.2578C507.212 33.3919 505.423 32.6855 503.555 32.1387C501.686 31.5918 499.67 31.3184 497.505 31.3184C494.497 31.3184 491.797 31.9792 489.404 33.3008C487.012 34.5996 484.961 36.3883 483.252 38.667C481.566 40.9456 480.278 43.5661 479.39 46.5283C478.501 49.4906 478.057 52.6237 478.057 55.9277C478.057 58.5254 478.467 60.7812 479.287 62.6953C480.107 64.6094 481.383 66.0905 483.115 67.1387C484.847 68.1641 487.046 68.6768 489.712 68.6768C491.216 68.6768 492.572 68.5742 493.779 68.3691C495.01 68.1413 496.149 67.8792 497.197 67.583L500 54.834H490.293L491.797 47.8955H509.434L504.033 73.0176C501.846 73.7923 499.51 74.4303 497.026 74.9316C494.565 75.4329 491.66 75.6836 488.311 75.6836ZM511.795 75L523.108 21.8164H531.072L519.793 75H511.795ZM544.166 75.6152C541.295 75.6152 538.788 75.0228 536.646 73.8379C534.504 72.653 532.841 70.9782 531.656 68.8135C530.494 66.626 529.913 64.0397 529.913 61.0547C529.913 58.5254 530.175 56.0645 530.699 53.6719C531.246 51.2793 532.043 49.0462 533.091 46.9727C534.14 44.8991 535.45 43.0876 537.022 41.5381C538.594 39.9658 540.417 38.7467 542.491 37.8809C544.564 36.9922 546.889 36.5479 549.463 36.5479C552.403 36.5479 554.932 37.1403 557.051 38.3252C559.171 39.5101 560.8 41.2077 561.939 43.418C563.078 45.6283 563.648 48.2715 563.648 51.3477C563.648 53.8086 563.386 56.2126 562.862 58.5596C562.361 60.9066 561.597 63.1169 560.572 65.1904C559.546 67.2412 558.248 69.0527 556.675 70.625C555.126 72.1745 553.303 73.3936 551.207 74.2822C549.133 75.1709 546.786 75.6152 544.166 75.6152ZM544.747 69.0527C546.023 69.0527 547.208 68.7679 548.301 68.1982C549.418 67.6058 550.421 66.7741 551.309 65.7031C552.198 64.6094 552.95 63.3219 553.565 61.8408C554.203 60.3369 554.693 58.6735 555.035 56.8506C555.377 55.0277 555.547 53.0794 555.547 51.0059C555.547 49.6159 555.342 48.3285 554.932 47.1436C554.522 45.9359 553.838 44.9674 552.881 44.2383C551.947 43.4863 550.694 43.1104 549.122 43.1104C547.709 43.1104 546.41 43.4521 545.225 44.1357C544.063 44.7965 543.026 45.7194 542.115 46.9043C541.226 48.0892 540.474 49.4564 539.859 51.0059C539.244 52.5326 538.777 54.1732 538.458 55.9277C538.139 57.6595 537.979 59.4141 537.979 61.1914C537.979 63.7207 538.549 65.6689 539.688 67.0361C540.85 68.3805 542.536 69.0527 544.747 69.0527ZM572.093 75L567.479 37.1631H575.409L577.323 57.9443C577.414 58.833 577.494 59.8926 577.562 61.123C577.63 62.3535 577.687 63.5612 577.733 64.7461C577.801 65.9082 577.835 66.8652 577.835 67.6172H578.109C578.496 66.6829 578.94 65.6234 579.442 64.4385C579.966 63.2308 580.49 62.0573 581.014 60.918C581.538 59.7559 582.005 58.776 582.415 57.9785L593.25 37.1631H601.829L581.287 75H572.093ZM612.906 75.6836C610.013 75.6836 607.483 75.1367 605.319 74.043C603.177 72.9264 601.513 71.2972 600.328 69.1553C599.166 66.9906 598.585 64.3473 598.585 61.2256C598.585 58.1266 599.029 55.1074 599.918 52.168C600.807 49.2057 602.117 46.5397 603.849 44.1699C605.581 41.8001 607.688 39.9202 610.172 38.5303C612.656 37.1403 615.481 36.4453 618.649 36.4453C622.522 36.4453 625.428 37.3226 627.364 39.0771C629.324 40.8089 630.304 43.1104 630.304 45.9814C630.304 47.9411 629.86 49.7298 628.971 51.3477C628.082 52.9655 626.726 54.3669 624.904 55.5518C623.103 56.7139 620.813 57.6139 618.033 58.252C615.276 58.89 612.029 59.209 608.292 59.209H606.754C606.731 59.5508 606.709 59.904 606.686 60.2686C606.663 60.6104 606.652 60.9521 606.652 61.2939C606.652 63.8232 607.312 65.8171 608.634 67.2754C609.956 68.7109 611.881 69.4287 614.41 69.4287C616.324 69.4287 618.09 69.1895 619.708 68.7109C621.326 68.2324 623.138 67.5146 625.143 66.5576V72.8809C623.297 73.7695 621.429 74.4645 619.537 74.9658C617.646 75.4443 615.436 75.6836 612.906 75.6836ZM607.745 53.3984H608.907C611.687 53.3984 614.103 53.1364 616.154 52.6123C618.204 52.0654 619.788 51.2679 620.904 50.2197C622.021 49.1488 622.579 47.8499 622.579 46.3232C622.579 45.1383 622.203 44.2155 621.451 43.5547C620.722 42.8711 619.628 42.5293 618.17 42.5293C616.735 42.5293 615.322 42.9736 613.932 43.8623C612.542 44.7282 611.3 45.9814 610.206 47.6221C609.113 49.2399 608.292 51.1654 607.745 53.3984Z" fill="white"/>
<defs>
<clipPath id="clip0_1_114">
<rect width="658.145" height="217.601" fill="white" transform="translate(0 82)"/>
</clipPath>
</defs>
</svg>
